<?xml version="1.0" encoding="UTF-8" standalone="no"?>
<!-- Created with Inkscape (http://www.inkscape.org/) -->

<svg
   width="135.41391mm"
   height="135.32864mm"
   viewBox="0 0 135.41391 135.32864"
   version="1.1"
   id="svg5"
   xmlns="http://www.w3.org/2000/svg"
   xmlns:svg="http://www.w3.org/2000/svg">
  <defs
     id="defs2" />
  <g
     id="layer1"
     transform="translate(-0.32040474,-0.60034874)">
    <path
       style="fill:#aaaaaa;stroke-width:0.264583"
       d="M 12.729455,135.49629 C 8.2153248,134.52677 4.1265345,131.37664 2.1328145,127.33233 0.18855449,123.38833 0.27173449,125.22388 0.35331449,88.068285 l 0.073,-33.255354 0.61737001,-1.719791 c 1.43838,-4.0069 4.1958703,-7.291038 7.6120003,-9.0658 3.5161702,-1.826741 2.6636402,-1.773861 28.6679602,-1.778206 l 23.40358,-0.0039 -9.00183,-9.061979 c -9.48837,-9.551783 -9.62721,-9.725957 -9.62721,-12.077736 0,-0.97142 0.61416,-2.564954 1.26624,-3.285501 1.21727,-1.34507 3.4989,-1.895357 5.45881,-1.316568 1.24119,0.366539 2.03263,1.081937 10.27716,9.289646 l 8.93242,8.892526 16.73216,-16.692991 C 100.20563,2.5881397 101.59926,1.2674687 102.82007,0.88283168 c 0.99332,-0.312966 1.61955,-0.356871 2.51354,-0.176225 0.65484,0.132321 1.27078,0.245769 1.36876,0.252107 0.46286,0.02994 1.88663,1.51310302 2.37902,2.47826502 0.70841,1.388602 0.56039,3.7029548 -0.31955,4.9963538 -0.32602,0.479203 -7.98718,8.2829175 -17.024815,17.3415895 l -16.43204,16.470312 23.414831,0.0039 c 26.016774,0.0043 25.162924,-0.0486 28.679214,1.778207 3.41613,1.774761 6.17362,5.058899 7.612,9.065799 l 0.61737,1.719792 0.073,33.255343 c 0.0816,37.155595 0.16476,35.320045 -1.7795,39.264055 -2.0204,4.09843 -6.10334,7.21086 -10.72893,8.17869 -2.70833,0.56666 -107.821785,0.55264 -110.463535,-0.0147 z m 59.00208,-10.17755 c 12.06799,-0.56705 17.65378,-2.08005 21.35925,-5.78552 4.624811,-4.62481 6.153911,-12.20081 6.156331,-30.501845 0.004,-28.17451 -3.37611,-33.954456 -21.033291,-35.969435 -3.82101,-0.436041 -35.41602,-0.625234 -41.63699,-0.249325 -11.1906,0.676204 -16.22477,2.184718 -19.83399,5.943349 -3.17536,3.306811 -4.71274,7.855921 -5.64191,16.694471 -0.51079,4.85875 -0.42441,23.58799 0.13023,28.239105 1.01819,8.53836 2.44843,12.526 5.64132,15.72858 3.75238,3.76376 9.90894,5.44897 21.52155,5.89102 7.93783,0.30217 26.99425,0.30765 33.3375,0.01 z m 48.766525,-20.90078 c 3.99078,-1.49315 6.20193,-6.367355 4.69672,-10.353325 -1.8069,-4.78486 -7.17454,-6.74196 -11.71426,-4.27113 -2.58379,1.40627 -4.02468,3.88873 -4.0374,6.95588 -0.0118,2.83893 1.04056,4.956575 3.32284,6.686675 2.07067,1.56969 5.12456,1.9575 7.7321,0.9819 z m 0.65579,-21.206835 c 5.99291,-2.8564 5.99268,-11.36579 -5.3e-4,-14.56201 -1.61235,-0.85989 -5.64875,-0.88111 -7.22087,-0.038 -4.42325,2.37229 -5.85547,7.76619 -3.15236,11.87214 2.33637,3.54889 6.40585,4.61898 10.37364,2.72782 z"
       id="path836" />
  </g>
</svg>
